<svg width="1137" height="836" viewBox="0 0 1137 836" fill="none"
    xmlns="http://www.w3.org/2000/svg">
    <g id="undraw_snow_games_ohkc 1" clip-path="url(#clip0)">
        <g id="falls">
            <path id="Vector" d="M598.419 488.862C603.49 488.862 607.6 484.751 607.6 479.681C607.6 474.611 603.49 470.501 598.419 470.501C593.349 470.501 589.239 474.611 589.239 479.681C589.239 484.751 593.349 488.862 598.419 488.862Z" fill="#D0CDE1"/>
            <path id="Vector_2" d="M520.385 519.846C525.455 519.846 529.566 515.736 529.566 510.665C529.566 505.595 525.455 501.485 520.385 501.485C515.315 501.485 511.205 505.595 511.205 510.665C511.205 515.736 515.315 519.846 520.385 519.846Z" fill="#D0CDE1"/>
            <path id="Vector_3" d="M490.549 376.401C495.619 376.401 499.729 372.29 499.729 367.22C499.729 362.15 495.619 358.04 490.549 358.04C485.478 358.04 481.368 362.15 481.368 367.22C481.368 372.29 485.478 376.401 490.549 376.401Z" fill="#D0CDE1"/>
            <path id="Vector_4" d="M375.792 410.827C379.595 410.827 382.678 407.745 382.678 403.942C382.678 400.139 379.595 397.057 375.792 397.057C371.99 397.057 368.907 400.139 368.907 403.942C368.907 407.745 371.99 410.827 375.792 410.827Z" fill="#D0CDE1"/>
            <path id="Vector_5" d="M450.384 493.452C454.187 493.452 457.269 490.369 457.269 486.567C457.269 482.764 454.187 479.681 450.384 479.681C446.581 479.681 443.498 482.764 443.498 486.567C443.498 490.369 446.581 493.452 450.384 493.452Z" fill="#D0CDE1"/>
            <path id="Vector_6" d="M785.472 177.872C790.542 177.872 794.653 173.762 794.653 168.692C794.653 163.621 790.542 159.511 785.472 159.511C780.402 159.511 776.292 163.621 776.292 168.692C776.292 173.762 780.402 177.872 785.472 177.872Z" fill="#D0CDE1"/>
            <path id="Vector_7" d="M855.473 70.0014C859.276 70.0014 862.359 66.9187 862.359 63.116C862.359 59.3133 859.276 56.2306 855.473 56.2306C851.671 56.2306 848.588 59.3133 848.588 63.116C848.588 66.9187 851.671 70.0014 855.473 70.0014Z" fill="#D0CDE1"/>
            <path id="Vector_8" d="M930.065 152.626C933.868 152.626 936.95 149.543 936.95 145.74C936.95 141.938 933.868 138.855 930.065 138.855C926.262 138.855 923.18 141.938 923.18 145.74C923.18 149.543 926.262 152.626 930.065 152.626Z" fill="#D0CDE1"/>
            <path id="Vector_9" d="M1023.02 344.269C1028.09 344.269 1032.2 340.159 1032.2 335.088C1032.2 330.018 1028.09 325.908 1023.02 325.908C1017.95 325.908 1013.84 330.018 1013.84 335.088C1013.84 340.159 1017.95 344.269 1023.02 344.269Z" fill="#D0CDE1"/>
            <path id="Vector_10" d="M899.999 249.136C903.802 249.136 906.885 246.053 906.885 242.25C906.885 238.448 903.802 235.365 899.999 235.365C896.196 235.365 893.114 238.448 893.114 242.25C893.114 246.053 896.196 249.136 899.999 249.136Z" fill="#D0CDE1"/>
            <path id="Vector_11" d="M706.29 495.747C711.361 495.747 715.471 491.637 715.471 486.567C715.471 481.496 711.361 477.386 706.29 477.386C701.22 477.386 697.11 481.496 697.11 486.567C697.11 491.637 701.22 495.747 706.29 495.747Z" fill="#D0CDE1"/>
            <path id="Vector_12" d="M815.309 503.78C819.111 503.78 822.194 500.697 822.194 496.895C822.194 493.092 819.111 490.009 815.309 490.009C811.506 490.009 808.423 493.092 808.423 496.895C808.423 500.697 811.506 503.78 815.309 503.78Z" fill="#D0CDE1"/>
            <path id="Vector_13" d="M139.394 204.266C144.465 204.266 148.575 200.156 148.575 195.086C148.575 190.015 144.465 185.905 139.394 185.905C134.324 185.905 130.214 190.015 130.214 195.086C130.214 200.156 134.324 204.266 139.394 204.266Z" fill="#D0CDE1"/>
            <path id="Vector_14" d="M130.214 130.822C134.017 130.822 137.099 127.739 137.099 123.937C137.099 120.134 134.017 117.051 130.214 117.051C126.411 117.051 123.328 120.134 123.328 123.937C123.328 127.739 126.411 130.822 130.214 130.822Z" fill="#D0CDE1"/>
            <path id="Vector_15" d="M123.328 633.455C127.131 633.455 130.214 630.372 130.214 626.569C130.214 622.766 127.131 619.684 123.328 619.684C119.526 619.684 116.443 622.766 116.443 626.569C116.443 630.372 119.526 633.455 123.328 633.455Z" fill="#D0CDE1"/>
            <path id="Vector_16" d="M391.858 655.258C395.661 655.258 398.744 652.176 398.744 648.373C398.744 644.57 395.661 641.487 391.858 641.487C388.055 641.487 384.973 644.57 384.973 648.373C384.973 652.176 388.055 655.258 391.858 655.258Z" fill="#D0CDE1"/>
            <path id="Vector_17" d="M946.131 524.436C951.201 524.436 955.311 520.326 955.311 515.256C955.311 510.185 951.201 506.075 946.131 506.075C941.061 506.075 936.95 510.185 936.95 515.256C936.95 520.326 941.061 524.436 946.131 524.436Z" fill="#D0CDE1"/>
            <path id="Vector_18" d="M1078.1 581.814C1081.9 581.814 1084.99 578.732 1084.99 574.929C1084.99 571.126 1081.9 568.043 1078.1 568.043C1074.3 568.043 1071.22 571.126 1071.22 574.929C1071.22 578.732 1074.3 581.814 1078.1 581.814Z" fill="#D0CDE1"/>
            <path id="Vector_19" d="M319.562 278.858C323.364 278.858 326.447 275.775 326.447 271.972C326.447 268.17 323.364 265.087 319.562 265.087C315.759 265.087 312.676 268.17 312.676 271.972C312.676 275.775 315.759 278.858 319.562 278.858Z" fill="#D0CDE1"/>
            <path id="Vector_20" d="M697.11 625.422C702.18 625.422 706.29 621.311 706.29 616.241C706.29 611.171 702.18 607.061 697.11 607.061C692.04 607.061 687.929 611.171 687.929 616.241C687.929 621.311 692.04 625.422 697.11 625.422Z" fill="#D0CDE1"/>
            <path id="Vector_21" d="M375.792 13.7708C379.595 13.7708 382.678 10.6881 382.678 6.88538C382.678 3.08269 379.595 0 375.792 0C371.99 0 368.907 3.08269 368.907 6.88538C368.907 10.6881 371.99 13.7708 375.792 13.7708Z" fill="#D0CDE1"/>
            <path id="Vector_22" d="M450.384 96.3953C454.187 96.3953 457.269 93.3126 457.269 89.5099C457.269 85.7072 454.187 82.6245 450.384 82.6245C446.581 82.6245 443.498 85.7072 443.498 89.5099C443.498 93.3126 446.581 96.3953 450.384 96.3953Z" fill="#D0CDE1"/>
            <path id="Vector_23" d="M434.318 185.905C438.121 185.905 441.203 182.822 441.203 179.02C441.203 175.217 438.121 172.134 434.318 172.134C430.515 172.134 427.433 175.217 427.433 179.02C427.433 182.822 430.515 185.905 434.318 185.905Z" fill="#D0CDE1"/>
            <path id="Vector_24" d="M644.322 76.8867C649.392 76.8867 653.502 72.7764 653.502 67.7062C653.502 62.6359 649.392 58.5257 644.322 58.5257C639.252 58.5257 635.141 62.6359 635.141 67.7062C635.141 72.7764 639.252 76.8867 644.322 76.8867Z" fill="#D0CDE1"/>
            <path id="Vector_25" d="M715.931 280.972C719.733 280.972 722.816 277.89 722.816 274.087C722.816 270.284 719.733 267.202 715.931 267.202C712.128 267.202 709.045 270.284 709.045 274.087C709.045 277.89 712.128 280.972 715.931 280.972Z" fill="#D0CDE1"/>
            <path id="Vector_26" d="M883.015 403.942C886.818 403.942 889.9 400.859 889.9 397.057C889.9 393.254 886.818 390.171 883.015 390.171C879.212 390.171 876.13 393.254 876.13 397.057C876.13 400.859 879.212 403.942 883.015 403.942Z" fill="#D0CDE1"/>
            <path id="Vector_27" d="M180.707 400.499C184.509 400.499 187.592 397.417 187.592 393.614C187.592 389.811 184.509 386.729 180.707 386.729C176.904 386.729 173.821 389.811 173.821 393.614C173.821 397.417 176.904 400.499 180.707 400.499Z" fill="#D0CDE1"/>
            <path id="Vector_28" d="M77.426 532.469C81.2287 532.469 84.3114 529.386 84.3114 525.584C84.3114 521.781 81.2287 518.698 77.426 518.698C73.6233 518.698 70.5406 521.781 70.5406 525.584C70.5406 529.386 73.6233 532.469 77.426 532.469Z" fill="#D0CDE1"/>
        </g>
        <g id="Ball">
            <path id="Vector_29" d="M316.361 459.722C326.501 459.722 334.722 451.501 334.722 441.361C334.722 431.22 326.501 423 316.361 423C306.22 423 298 431.22 298 441.361C298 451.501 306.22 459.722 316.361 459.722Z" fill="#FF6584"/>
        </g>
        <g id="Scenery">
            <path id="Vector_30" d="M799.141 634.261L792.313 658.47H820.313C816.314 648.906 815.291 639.824 818.758 631.47L799.141 634.261Z" fill="#FFB8B8"/>
            <path id="Vector_31" d="M1126.63 846.035C1126.63 846.414 1126.61 846.804 1126.59 847.183H-9.42624C-9.44924 846.804 -9.46069 846.414 -9.46069 846.035C-9.46069 788.439 244.862 741.756 558.583 741.756C872.303 741.756 1126.63 788.439 1126.63 846.035Z" fill="#3F3D56"/>
            <path id="Vector_32" d="M940.721 793.247C975.579 793.247 1003.84 764.989 1003.84 730.131C1003.84 695.273 975.579 667.015 940.721 667.015C905.863 667.015 877.605 695.273 877.605 730.131C877.605 764.989 905.863 793.247 940.721 793.247Z" fill="#D0CDE1"/>
            <path id="Vector_33" d="M944.164 701.442C967.614 701.442 986.624 693.735 986.624 684.229C986.624 674.722 967.614 667.015 944.164 667.015C920.714 667.015 901.704 674.722 901.704 684.229C901.704 693.735 920.714 701.442 944.164 701.442Z" fill="#3F3D56"/>
            <path id="Vector_34" d="M946.459 685.376C968.641 685.376 986.624 667.394 986.624 645.212C986.624 623.029 968.641 605.047 946.459 605.047C924.277 605.047 906.294 623.029 906.294 645.212C906.294 667.394 924.277 685.376 946.459 685.376Z" fill="#D0CDE1"/>
            <path id="Vector_35" d="M934.242 637.585C937.635 637.585 940.386 634.834 940.386 631.441C940.386 628.048 937.635 625.297 934.242 625.297C930.849 625.297 928.098 628.048 928.098 631.441C928.098 634.834 930.849 637.585 934.242 637.585Z" fill="#575A89"/>
            <path id="Vector_36" d="M955.233 637.585C958.627 637.585 961.377 634.834 961.377 631.441C961.377 628.048 958.627 625.297 955.233 625.297C951.84 625.297 949.09 628.048 949.09 631.441C949.09 634.834 951.84 637.585 955.233 637.585Z" fill="#575A89"/>
            <path id="Vector_37" d="M943.016 639.474L941.34 659.594C941.324 659.78 941.378 659.964 941.491 660.112C941.604 660.259 941.767 660.36 941.95 660.394C942.132 660.428 942.321 660.393 942.479 660.295C942.638 660.198 942.754 660.045 942.806 659.867L948.754 639.474L943.016 639.474Z" fill="#FF6584"/>
            <path id="Vector_38" d="M906.882 812.926L899.579 820.229L859.244 772.591L860.222 766.265L906.882 812.926Z" fill="#575A89"/>
            <path id="Vector_39" d="M875.31 789.804V794.395L838.588 792.1L835.145 789.804H875.31Z" fill="#575A89"/>
            <path id="Vector_40" d="M903.999 723.246C909.703 723.246 914.327 718.108 914.327 711.77C914.327 705.432 909.703 700.295 903.999 700.295C898.295 700.295 893.671 705.432 893.671 711.77C893.671 718.108 898.295 723.246 903.999 723.246Z" fill="#D0CDE1"/>
            <path id="Vector_41" d="M990.626 710.793L997.929 718.096L1038.26 670.458L1037.29 664.132L990.626 710.793Z" fill="#575A89"/>
            <path id="Vector_42" d="M1011.87 693.409V697.999L1048.59 695.704L1052.04 693.409H1011.87Z" fill="#575A89"/>
            <path id="Vector_43" d="M993.509 723.246C999.213 723.246 1003.84 718.108 1003.84 711.77C1003.84 705.432 999.213 700.295 993.509 700.295C987.805 700.295 983.181 705.432 983.181 711.77C983.181 718.108 987.805 723.246 993.509 723.246Z" fill="#D0CDE1"/>
            <path id="Vector_44" d="M944.164 720.951C946.699 720.951 948.754 718.896 948.754 716.36C948.754 713.825 946.699 711.77 944.164 711.77C941.629 711.77 939.574 713.825 939.574 716.36C939.574 718.896 941.629 720.951 944.164 720.951Z" fill="#575A89"/>
            <path id="Vector_45" d="M944.164 735.869C946.699 735.869 948.754 733.814 948.754 731.279C948.754 728.744 946.699 726.689 944.164 726.689C941.629 726.689 939.574 728.744 939.574 731.279C939.574 733.814 941.629 735.869 944.164 735.869Z" fill="#575A89"/>
            <path id="Vector_46" d="M944.164 750.787C946.699 750.787 948.754 748.732 948.754 746.197C948.754 743.662 946.699 741.607 944.164 741.607C941.629 741.607 939.574 743.662 939.574 746.197C939.574 748.732 941.629 750.787 944.164 750.787Z" fill="#575A89"/>
            <path id="Vector_47" d="M745.775 757.663C746.015 752.575 744.635 747.542 741.834 743.288C739.033 739.033 734.955 735.777 730.186 733.987C725.418 732.196 720.204 731.964 715.296 733.323C710.387 734.683 706.035 737.564 702.867 741.552C700.307 737.647 696.67 734.568 692.395 732.689C693.773 727.472 693.359 721.943 691.221 716.988C689.083 712.034 685.343 707.941 680.601 705.364C675.859 702.788 670.39 701.879 665.07 702.781C659.749 703.683 654.886 706.345 651.259 710.341C645.57 704.702 638.741 700.346 631.23 697.564C632.156 691.702 630.886 685.705 627.663 680.722C624.44 675.738 619.49 672.121 613.764 670.563C608.037 669.004 601.937 669.615 596.633 672.278C591.329 674.94 587.195 679.467 585.024 684.991C580.776 682.036 575.689 680.528 570.517 680.693C565.345 680.857 560.364 682.683 556.312 685.901C552.26 689.119 549.353 693.558 548.022 698.558C546.692 703.559 547.008 708.855 548.924 713.661C546.083 714.708 543.465 716.28 541.206 718.296C535.694 716.265 529.63 716.32 524.155 718.449C518.681 720.579 514.173 724.636 511.482 729.858C509.301 727.437 506.651 725.484 503.694 724.116C503.765 723.526 503.839 722.937 503.867 722.335C504.026 718.974 503.479 715.617 502.262 712.481C501.044 709.344 499.184 706.497 496.8 704.123C494.416 701.749 491.561 699.9 488.419 698.696C485.278 697.492 481.919 696.959 478.559 697.132C475.199 697.305 471.912 698.179 468.91 699.699C465.909 701.218 463.258 703.35 461.13 705.956C459.002 708.561 457.443 711.584 456.554 714.829C455.664 718.074 455.464 721.469 455.966 724.796C450.509 726.282 445.757 729.659 442.559 734.325C439.361 738.99 437.925 744.64 438.506 750.267C411.464 751.061 385.381 752.328 360.457 754.041C357.388 743.297 351.188 733.71 342.647 726.504C334.107 719.299 323.614 714.8 312.506 713.583C301.398 712.367 290.18 714.486 280.282 719.672C270.384 724.858 262.255 732.875 256.933 742.7C252.759 739.542 247.67 737.828 242.436 737.82C237.202 737.811 232.108 739.508 227.924 742.652C223.74 745.797 220.694 750.219 219.247 755.25C217.8 760.28 218.031 765.644 219.905 770.532C218.814 770.728 217.728 770.925 216.646 771.123C216.685 770.723 216.744 770.33 216.763 769.924C216.913 766.761 216.438 763.599 215.366 760.619C214.293 757.639 212.644 754.899 210.511 752.557C208.379 750.215 205.807 748.316 202.94 746.969C200.074 745.623 196.97 744.854 193.806 744.707C190.642 744.561 187.481 745.039 184.502 746.116C181.523 747.192 178.786 748.845 176.446 750.98C174.107 753.115 172.211 755.69 170.868 758.558C169.524 761.426 168.759 764.531 168.617 767.695C168.605 767.944 168.624 768.188 168.62 768.436C166.417 767.6 164.047 767.298 161.705 767.554C159.362 767.811 157.114 768.62 155.145 769.914C153.175 771.207 151.541 772.95 150.375 774.997C149.209 777.045 148.546 779.34 148.439 781.694C148.351 783.584 745.732 758.6 745.775 757.663Z" fill="#D0CDE1"/>
            <path id="Vector_48" d="M547.369 711.088L632.366 584.688L547.543 724.686L547.72 738.91C541.515 738.957 535.37 738.854 529.285 738.6L533.501 555.77L533.386 554.36L533.541 554.087L533.945 536.811L440.862 401.666L533.835 523.881L534.165 527.532L537.349 389.398L456.951 249.284L537.578 365.131L536.736 78.9518L536.738 77.9993L536.765 78.9361L542.102 304.484L615.376 212.866L542.342 323.915L543.942 447.473L611.368 326.885L544.189 465.638L545.08 534.343L643.136 366.365L545.378 558.311L547.369 711.088Z" fill="#3F3D56"/>
            <path id="Vector_49" d="M528.746 360.616C533.816 360.616 537.927 356.506 537.927 351.436C537.927 346.365 533.816 342.255 528.746 342.255C523.676 342.255 519.566 346.365 519.566 351.436C519.566 356.506 523.676 360.616 528.746 360.616Z" fill="#D0CDE1"/>
            <path id="Vector_50" d="M542.517 360.616C542.517 358.989 542.084 357.39 541.262 355.986C540.441 354.581 539.26 353.42 537.841 352.622C538.057 350.97 537.82 349.291 537.154 347.764C536.488 346.238 535.419 344.921 534.062 343.955C532.704 342.99 531.11 342.412 529.449 342.283C527.789 342.155 526.124 342.481 524.635 343.227C523.145 343.972 521.887 345.109 520.994 346.516C520.102 347.922 519.609 349.545 519.568 351.21C519.528 352.875 519.941 354.52 520.765 355.968C521.588 357.416 522.79 358.613 524.241 359.43C524.076 360.618 524.151 361.828 524.461 362.987C524.771 364.146 525.31 365.232 526.046 366.18C525.406 367.665 525.17 369.292 525.361 370.898C525.552 372.504 526.163 374.031 527.134 375.324C528.104 376.618 529.399 377.632 530.887 378.265C532.375 378.898 534.004 379.127 535.608 378.928C537.213 378.729 538.737 378.11 540.026 377.134C541.315 376.158 542.323 374.858 542.949 373.367C543.575 371.876 543.796 370.246 543.589 368.642C543.383 367.038 542.757 365.517 541.775 364.233C542.265 363.09 542.518 361.86 542.517 360.616V360.616Z" fill="#D0CDE1"/>
            <path id="Vector_51" d="M559.73 267.663C557.295 267.663 554.96 268.631 553.239 270.352C551.517 272.074 550.55 274.409 550.55 276.844C548.508 276.845 546.525 277.527 544.915 278.782C543.305 280.037 542.159 281.793 541.659 283.773C539.984 283.928 538.384 284.542 537.033 285.546C535.683 286.549 534.635 287.905 534.003 289.464C533.371 291.023 533.179 292.727 533.45 294.387C533.72 296.048 534.442 297.602 535.536 298.88C536.63 300.159 538.055 301.111 539.654 301.635C541.253 302.158 542.965 302.232 544.603 301.848C546.241 301.465 547.742 300.638 548.942 299.459C550.142 298.279 550.995 296.793 551.408 295.162C553.683 294.948 555.798 293.894 557.337 292.204C558.877 290.514 559.73 288.31 559.73 286.024C562.165 286.024 564.5 285.057 566.222 283.336C567.944 281.614 568.911 279.279 568.911 276.844C568.911 274.409 567.944 272.074 566.222 270.352C564.5 268.631 562.165 267.663 559.73 267.663V267.663Z" fill="#D0CDE1"/>
            <path id="Vector_52" d="M868.998 656.687L879.327 646.359L885.064 652.097L875.884 667.015L868.998 656.687Z" fill="#FFB8B8"/>
            <path id="Vector_53" d="M873.589 646.359L880.474 641.769C880.474 641.769 897.687 618.818 904.573 630.293C911.458 641.769 891.95 653.244 891.95 653.244L886.212 660.13L873.589 646.359Z" fill="#FF6584"/>
            <path id="Vector_54" opacity="0.15" d="M873.589 646.359L880.474 641.769C880.474 641.769 897.687 618.818 904.573 630.293C911.458 641.769 891.95 653.244 891.95 653.244L886.212 660.13L873.589 646.359Z" fill="black"/>
            <path id="Vector_55" d="M811.62 668.163H848.342L870.146 653.244L882.769 670.458L852.933 693.409L821.948 699.147L811.62 668.163Z" fill="#FF6584"/>
            <path id="Vector_56" d="M826.539 733C826.539 733 859.818 769.722 854.08 778.903C848.342 788.083 835.719 788.083 833.424 786.936C831.129 785.788 797.85 767.427 797.85 767.427L802.44 752.509C802.44 752.509 795.554 736.443 802.44 735.295C809.325 734.148 826.539 733 826.539 733Z" fill="#2F2E41"/>
            <path id="Vector_57" d="M804.735 752.509C804.735 752.509 782.931 735.295 778.341 738.738C773.751 742.181 758.832 763.984 761.128 774.312C763.423 784.64 761.128 788.083 768.013 786.936C774.898 785.788 776.046 774.312 776.046 774.312L800.145 765.132L804.735 752.509Z" fill="#2F2E41"/>
            <path id="Vector_58" opacity="0.15" d="M811.928 755.467L811.312 756.435L836.559 772.501L837.175 771.533L811.928 755.467Z" fill="black"/>
            <path id="Vector_59" d="M811.62 641.195C821.127 641.195 828.834 633.488 828.834 623.982C828.834 614.475 821.127 606.768 811.62 606.768C802.114 606.768 794.407 614.475 794.407 623.982C794.407 633.488 802.114 641.195 811.62 641.195Z" fill="#FFB8B8"/>
            <path id="Vector_60" d="M790.964 643.49C790.964 643.49 786.374 654.966 786.374 682.507C786.374 710.049 770.308 722.672 782.931 736.443C795.554 750.214 845.313 741.47 845.313 741.47C845.313 741.47 844.777 741.895 844.9 741.033C846.047 733 833.424 649.228 828.834 648.08C824.244 646.933 790.964 643.49 790.964 643.49Z" fill="#FF6584"/>
            <path id="Vector_61" d="M868.998 637.752L879.327 627.424L885.064 633.162L875.884 648.08L868.998 637.752Z" fill="#FFB8B8"/>
            <path id="Vector_62" d="M778.842 622.626C775.041 623.183 770.845 623.608 768.155 624.768C764.624 626.29 764.83 628.574 765.788 630.568C766.747 632.562 768.246 634.639 766.646 636.573C765.716 637.697 763.813 638.662 762.327 639.696C760.842 640.731 759.749 641.947 760.627 643.078C761.544 644.258 764.352 645.057 766.325 646.035C770.588 648.147 770.648 651.335 766.466 653.47C770.066 651.303 776.934 650.338 783.234 649.416C789.533 648.493 796.303 647.268 798.944 644.912C801.639 642.509 799.133 639.711 800.532 637.155C801.727 634.969 805.631 633.168 808.75 631.275C811.869 629.382 814.326 627.049 812.274 624.956C810.76 623.412 806.885 622.065 807.622 620.442C808.078 619.438 810.21 618.688 811.742 617.851C813.274 617.014 814.128 615.762 812.198 615.053C805.19 616.317 798.056 617.512 791.144 618.85C786.881 619.675 784.357 622.626 778.842 622.626Z" fill="#2F2E41"/>
            <path id="Vector_63" d="M811.62 649.228H848.342L870.146 634.31L882.769 651.523L852.933 674.474L821.948 680.212L811.62 649.228Z" fill="#FF6584"/>
            <path id="Vector_64" d="M904.451 642.916C904.451 642.916 936.583 626.851 936.583 621.113C936.583 615.375 923.96 598.161 901.008 598.161C901.008 598.161 895.27 587.833 888.385 595.866C881.5 603.899 891.828 609.637 891.828 609.637C891.828 609.637 879.205 630.293 897.566 642.916H904.451Z" fill="#3F3D56"/>
            <path id="Vector_65" d="M622.846 454.716C632.987 454.716 641.207 446.496 641.207 436.355C641.207 426.215 632.987 417.994 622.846 417.994C612.706 417.994 604.485 426.215 604.485 436.355C604.485 446.496 612.706 454.716 622.846 454.716Z" fill="#FF6584"/>
            <path id="Vector_66" d="M610.705 436.616L605.45 429.599L606.369 428.911L610.889 434.946L618.83 428.141L626.833 435L633.748 428.085L641.039 435.376L640.228 436.187L633.748 429.707L626.893 436.562L618.83 429.651L610.705 436.616Z" fill="#575A89"/>
            <path id="Vector_67" d="M609.569 445.69L604.362 438.734L605.163 438.135L609.729 444.234L617.682 437.418L625.689 444.281L632.6 437.369L639.84 444.608L639.132 445.315L632.6 438.783L625.742 445.643L617.682 438.734L609.569 445.69Z" fill="#575A89"/>
            <path id="Vector_68" d="M622.846 404.797H621.699V418.568H622.846V404.797Z" fill="#575A89"/>
            <path id="Vector_69" d="M588.419 304.385C598.56 304.385 606.78 296.165 606.78 286.024C606.78 275.884 598.56 267.663 588.419 267.663C578.279 267.663 570.058 275.884 570.058 286.024C570.058 296.165 578.279 304.385 588.419 304.385Z" fill="#FF6584"/>
            <path id="Vector_70" d="M576.278 286.286L571.023 279.268L571.942 278.58L576.462 284.616L584.403 277.81L592.406 284.67L599.321 277.754L606.612 285.045L605.801 285.856L599.321 279.377L592.466 286.232L584.403 279.321L576.278 286.286Z" fill="#575A89"/>
            <path id="Vector_71" d="M575.142 295.358L569.935 288.404L570.736 287.804L575.302 293.904L583.256 287.087L591.262 293.95L598.173 287.039L605.413 294.278L604.706 294.985L598.173 288.453L591.315 295.313L583.256 288.404L575.142 295.358Z" fill="#575A89"/>
            <path id="Vector_72" d="M588.419 254.466H587.272V268.237H588.419V254.466Z" fill="#575A89"/>
            <path id="Vector_73" d="M447.269 460.454C457.41 460.454 465.63 452.233 465.63 442.093C465.63 431.952 457.41 423.732 447.269 423.732C437.129 423.732 428.908 431.952 428.908 442.093C428.908 452.233 437.129 460.454 447.269 460.454Z" fill="#FF6584"/>
            <path id="Vector_74" d="M435.128 442.354L429.873 435.336L430.792 434.648L435.312 440.684L443.253 433.878L451.255 440.738L458.171 433.822L465.462 441.114L464.651 441.925L458.171 435.445L451.316 442.3L443.253 435.389L435.128 442.354Z" fill="#575A89"/>
            <path id="Vector_75" d="M433.992 451.427L428.785 444.473L429.586 443.873L434.152 449.972L442.105 443.156L450.112 450.019L457.024 443.107L464.262 450.346L463.555 451.053L457.024 444.522L450.165 451.38L442.105 444.473L433.992 451.427Z" fill="#575A89"/>
            <path id="Vector_76" d="M447.269 410.535H446.122V424.306H447.269V410.535Z" fill="#575A89"/>
            <path id="Vector_77" d="M553.405 104.917L537.768 93.183L521.776 104.429L528.104 85.931L512.466 74.196L532.014 74.498L538.342 56L544.096 74.685L563.644 74.987L547.652 86.233L553.405 104.917Z" fill="black"/>
            <path id="Vector_78" d="M746.893 746.222C747.133 741.134 745.753 736.101 742.952 731.847C740.151 727.593 736.073 724.336 731.304 722.546C726.536 720.755 721.322 720.523 716.414 721.882C711.505 723.242 707.153 726.123 703.985 730.111C701.425 726.206 697.787 723.128 693.513 721.249C694.891 716.031 694.477 710.502 692.339 705.548C690.2 700.593 686.461 696.5 681.719 693.924C676.977 691.348 671.508 690.438 666.188 691.34C660.867 692.243 656.004 694.905 652.377 698.9C646.688 693.262 639.859 688.905 632.348 686.123C633.274 680.262 632.004 674.264 628.781 669.281C625.558 664.298 620.608 660.68 614.882 659.122C609.155 657.564 603.055 658.174 597.751 660.837C592.447 663.5 588.313 668.027 586.142 673.55C581.894 670.595 576.807 669.088 571.635 669.252C566.463 669.416 561.482 671.242 557.43 674.461C553.378 677.679 550.471 682.117 549.14 687.117C547.81 692.118 548.126 697.414 550.042 702.221C547.201 703.267 544.583 704.839 542.324 706.855C536.812 704.824 530.748 704.879 525.273 707.009C519.799 709.138 515.291 713.195 512.6 718.417C510.418 715.997 507.769 714.044 504.812 712.675C504.883 712.086 504.957 711.497 504.985 710.894C505.144 707.533 504.597 704.176 503.38 701.04C502.162 697.903 500.302 695.056 497.918 692.682C495.534 690.308 492.679 688.46 489.537 687.256C486.396 686.052 483.037 685.519 479.677 685.691C476.317 685.864 473.03 686.738 470.028 688.258C467.026 689.778 464.376 691.909 462.248 694.515C460.12 697.121 458.561 700.143 457.672 703.388C456.782 706.633 456.582 710.028 457.084 713.355C451.627 714.841 446.875 718.219 443.677 722.884C440.479 727.55 439.043 733.2 439.624 738.826C412.582 739.62 386.499 740.887 361.575 742.6C358.506 731.856 352.306 722.269 343.765 715.063C335.225 707.858 324.732 703.359 313.624 702.143C302.516 700.926 291.298 703.046 281.4 708.231C271.502 713.417 263.373 721.434 258.051 731.259C253.877 728.101 248.788 726.387 243.554 726.379C238.32 726.37 233.226 728.067 229.042 731.212C224.858 734.356 221.812 738.779 220.365 743.809C218.918 748.839 219.149 754.204 221.023 759.091C219.932 759.287 218.846 759.484 217.764 759.682C217.803 759.283 217.862 758.889 217.881 758.483C218.031 755.32 217.556 752.158 216.484 749.178C215.411 746.198 213.762 743.458 211.629 741.116C209.497 738.774 206.924 736.876 204.058 735.529C201.192 734.182 198.088 733.413 194.924 733.266C191.76 733.12 188.599 733.598 185.62 734.675C182.641 735.751 179.904 737.404 177.564 739.539C175.225 741.674 173.329 744.249 171.986 747.117C170.642 749.985 169.877 753.09 169.735 756.254C169.723 756.504 169.742 756.747 169.738 756.995C167.535 756.159 165.165 755.857 162.823 756.114C160.48 756.37 158.232 757.179 156.263 758.473C154.293 759.766 152.659 761.509 151.493 763.557C150.327 765.605 149.664 767.9 149.557 770.254C149.469 772.143 746.85 747.159 746.893 746.222Z" fill="#D0CDE1"/>
            <path id="Vector_79" d="M271.543 847.183H178.2C183.341 839.524 190.287 833.248 198.427 828.909C206.566 824.57 215.648 822.3 224.872 822.3C234.095 822.3 243.177 824.57 251.317 828.909C259.456 833.248 266.402 839.524 271.543 847.183V847.183Z" fill="#D0CDE1"/>
            <path id="Vector_80" d="M83.3427 847.183H-10C-4.85928 839.524 2.08704 833.248 10.2263 828.909C18.3655 824.57 27.4476 822.3 36.6713 822.3C45.8951 822.3 54.9772 824.57 63.1164 828.909C71.2557 833.248 78.202 839.524 83.3427 847.183V847.183Z" fill="#D0CDE1"/>
            <path id="Vector_81" d="M138.426 847.183H45.083C50.2237 839.524 57.1701 833.248 65.3093 828.909C73.4486 824.57 82.5306 822.3 91.7544 822.3C100.978 822.3 110.06 824.57 118.199 828.909C126.339 833.248 133.285 839.524 138.426 847.183Z" fill="#D0CDE1"/>
            <path id="Vector_82" d="M397.775 794.395H304.432C309.573 786.736 316.519 780.461 324.658 776.121C332.798 771.782 341.88 769.512 351.103 769.512C360.327 769.512 369.409 771.782 377.549 776.121C385.688 780.461 392.634 786.736 397.775 794.395V794.395Z" fill="#D0CDE1"/>
            <path id="Vector_83" d="M771.88 820.789H678.538C683.678 813.13 690.625 806.855 698.764 802.515C706.903 798.176 715.985 795.906 725.209 795.906C734.433 795.906 743.515 798.176 751.654 802.515C759.793 806.855 766.74 813.13 771.88 820.789V820.789Z" fill="#D0CDE1"/>
            <path id="Vector_84" d="M610.889 841.743C613.805 843.033 616.44 844.881 618.646 847.183H358.964C360.416 843.963 362.555 841.101 365.232 838.798C367.908 836.494 371.057 834.804 374.456 833.848C374.22 832.295 374.139 830.723 374.215 829.154C374.361 825.992 375.127 822.89 376.472 820.024C377.817 817.158 379.713 814.586 382.052 812.453C384.391 810.32 387.128 808.669 390.105 807.595C393.083 806.52 396.243 806.042 399.405 806.189C402.567 806.336 405.669 807.105 408.534 808.451C411.399 809.798 413.971 811.695 416.102 814.036C418.233 816.376 419.883 819.114 420.956 822.092C422.029 825.07 422.504 828.23 422.356 831.392C422.333 831.989 422.264 832.574 422.183 833.171C425.143 834.535 427.794 836.487 429.975 838.909C432.669 833.69 437.176 829.635 442.65 827.507C448.123 825.379 454.186 825.324 459.697 827.353C461.956 825.334 464.577 823.761 467.42 822.717C466.147 819.544 465.572 816.135 465.733 812.721C465.927 808.421 467.27 804.25 469.624 800.645C471.977 797.04 475.254 794.132 479.113 792.225C482.972 790.317 487.272 789.479 491.566 789.798C495.859 790.117 499.988 791.581 503.523 794.039C505.613 788.729 509.52 784.334 514.549 781.636C519.577 778.938 525.4 778.113 530.979 779.308C536.559 780.502 541.534 783.639 545.017 788.159C548.5 792.679 550.266 798.288 549.999 803.988C549.954 804.869 549.862 805.746 549.724 806.616C557.232 809.399 564.06 813.753 569.749 819.389C573.374 815.385 578.239 812.715 583.563 811.809C588.888 810.903 594.362 811.812 599.108 814.39C603.854 816.969 607.595 821.068 609.732 826.028C611.868 830.989 612.276 836.523 610.889 841.743V841.743Z" fill="#D0CDE1"/>
            <path id="Vector_85" d="M867.977 847.183H823.681C825.537 842.846 828.625 839.15 832.562 836.553C836.499 833.955 841.112 832.571 845.829 832.571C850.546 832.571 855.159 833.955 859.096 836.553C863.033 839.15 866.121 842.846 867.977 847.183V847.183Z" fill="#D0CDE1"/>
            <path id="Vector_86" d="M1054.16 847.183H914.304C913.492 844.574 913.147 841.843 913.283 839.115C913.476 834.814 914.82 830.644 917.173 827.039C919.526 823.434 922.803 820.526 926.662 818.618C930.522 816.711 934.822 815.872 939.115 816.192C943.408 816.511 947.537 817.975 951.072 820.433C953.162 815.123 957.07 810.728 962.098 808.03C967.126 805.332 972.949 804.507 978.529 805.702C984.109 806.896 989.083 810.033 992.566 814.553C996.05 819.073 997.815 824.682 997.548 830.382C997.503 831.263 997.411 832.14 997.273 833.01C1004.78 835.793 1011.61 840.147 1017.3 845.783C1019.66 843.181 1022.56 841.127 1025.8 839.766C1029.04 838.405 1032.54 837.768 1036.05 837.902C1039.57 838.035 1043.01 838.935 1046.13 840.538C1049.26 842.141 1052 844.409 1054.16 847.183V847.183Z" fill="#D0CDE1"/>
            <path id="Vector_87" d="M246.07 514.333C257.362 514.333 266.516 505.179 266.516 493.887C266.516 482.594 257.362 473.44 246.07 473.44C234.777 473.44 225.623 482.594 225.623 493.887C225.623 505.179 234.777 514.333 246.07 514.333Z" fill="#A0616A"/>
            <path id="Vector_88" d="M250.88 467.816C258.165 468.272 264.924 471.651 271.241 475.307C270.716 475.042 270.118 474.96 269.542 475.074C268.965 475.187 268.443 475.491 268.058 475.935C267.215 476.752 266.686 477.844 265.874 478.692C264.367 480.269 262.105 480.815 259.976 481.289L250.049 483.497L240.843 485.546C238.555 486.208 236.162 486.428 233.792 486.194C231.449 485.807 229.13 484.296 228.517 482.001C227.667 478.813 234.004 474.069 236.328 472.149C240.473 468.949 245.66 467.405 250.88 467.816Z" fill="#2F2E41"/>
            <path id="Vector_89" d="M232.177 484.545C236.469 478.519 243.167 474.601 249.886 471.221C248.755 471.669 248.468 473.133 248.771 474.323C249.074 475.513 249.796 476.588 250.145 477.768C250.793 479.962 250.092 482.222 249.396 484.328L246.15 494.143L243.139 503.245C242.536 505.587 241.464 507.781 239.987 509.695C239.197 510.651 238.152 511.362 236.974 511.748C235.795 512.133 234.531 512.176 233.329 511.872C229.947 510.8 228.955 502.646 228.426 499.554C227.666 494.253 229.013 488.865 232.177 484.545V484.545Z" fill="#2F2E41"/>
            <path id="Vector_90" d="M326 477.297C326 477.297 327.203 450.837 333.216 452.04C339.23 453.243 334.419 479.702 334.419 479.702L326 477.297Z" fill="#A0616A"/>
            <path id="Vector_91" d="M324.031 523.667L302.037 543.295L295.639 549L279 520.046L289.385 515.002L311.304 504.364L324.031 473L334.794 476.62C336.758 482.651 324.031 523.667 324.031 523.667Z" fill="#575A89"/>
            <path id="Vector_92" d="M291.773 472.238C291.773 472.238 288.165 440.967 295.381 443.373C302.597 445.778 301.394 475.846 301.394 475.846L291.773 472.238Z" fill="#A0616A"/>
            <path id="Vector_93" d="M236.996 752.565L230.056 770.714L249.389 776.433L249.021 752.382L236.996 752.565Z" fill="#575A89"/>
            <path id="Vector_94" d="M294.028 627.799L274.798 707.482L256.329 758.284L232.277 758.652L254.133 693.363L262.651 621.062L294.028 627.799Z" fill="#2F2E41"/>
            <path id="Vector_95" d="M227.361 768.736C227.361 768.736 220.039 784.322 224.976 786.456C229.914 788.59 243.324 791.456 243.324 791.456L245.165 789.908C245.165 789.908 276.148 796.854 281.337 786.205C286.525 775.556 262.173 770.891 262.173 770.891L251.043 761.393L237.675 767.92L227.361 768.736Z" fill="#2F2E41"/>
            <path id="Vector_96" d="M211.686 749.344L204.747 767.493L224.08 773.212L223.712 749.16L211.686 749.344Z" fill="#575A89"/>
            <path id="Vector_97" d="M235.978 623.267L228.879 693.75L206.913 751.823L227.467 758.725L258.999 696.898L273.547 625.707L235.978 623.267Z" fill="#2F2E41"/>
            <path id="Vector_98" d="M200.751 766.185C200.751 766.185 189.276 779.025 193.396 782.482C197.517 785.94 209.546 792.523 209.546 792.523L211.753 791.566C211.753 791.566 239.455 807.086 247.473 798.367C255.491 789.648 233.492 778.21 233.492 778.21L225.545 765.925L210.868 768.355L200.751 766.185Z" fill="#2F2E41"/>
            <path id="Vector_99" opacity="0.15" d="M306.847 543.526L298.987 549.215L278.544 520.346L284.233 519.334C284.548 519.854 289.476 519.724 289.801 520.262C295.767 530.034 304.37 538.292 306.847 543.526Z" fill="black"/>
            <path id="Vector_100" d="M319.496 639.97C318.103 639.069 317.779 629.657 315.784 628.834C314.771 628.417 312.293 636.562 311.145 636.164C281.324 625.846 214.663 647.964 203.499 623.267C195.993 606.661 243.662 574.465 243.662 562.438C243.505 559.376 242.949 556.347 242.01 553.428C239.737 545.466 235.505 535.444 232.09 527.881C229.167 521.403 226.829 516.736 226.829 516.736C226.829 516.736 261.897 506.315 273.134 502.287C274.563 501.777 275.603 501.369 276.141 501.099C278.294 500.023 283.824 507.632 289.494 516.903C296.473 528.326 303.674 542.283 305.001 545.605C307.404 551.618 339.939 653.203 319.496 639.97Z" fill="#575A89"/>
            <path id="Vector_101" opacity="0.15" d="M285.161 514.694C272.141 530.368 258.129 549.103 246.065 552.648C244.744 553.047 243.385 553.308 242.01 553.428C239.737 545.466 235.505 535.444 232.09 527.881C233.48 526.355 235.146 525.105 236.999 524.197L269.617 508.143L273.134 502.287C274.563 501.777 275.603 501.369 276.141 501.1C278.294 500.023 279.491 505.424 285.161 514.694Z" fill="black"/>
            <path id="Vector_102" d="M236.998 519.558C228.09 523.943 224.844 535.341 230.615 543.421C233.61 547.614 238.402 550.264 246.07 548.009C266.516 541.995 305.003 498.697 305.003 485.468V473.44L290.57 468.63L269.616 503.501L236.998 519.558Z" fill="#575A89"/>
            <path id="Vector_103" d="M291.029 525.139C291.863 524.544 291.574 522.708 290.383 521.04C289.192 519.371 287.551 518.501 286.716 519.097C285.882 519.692 286.171 521.528 287.362 523.196C288.553 524.865 290.195 525.735 291.029 525.139Z" fill="#2F2E41"/>
            <path id="Vector_104" d="M296.597 535.347C297.431 534.752 297.142 532.916 295.951 531.248C294.76 529.579 293.118 528.709 292.284 529.304C291.45 529.9 291.739 531.735 292.93 533.404C294.121 535.072 295.762 535.942 296.597 535.347Z" fill="#2F2E41"/>
            <path id="Vector_105" d="M301.236 546.483C302.071 545.887 301.782 544.052 300.591 542.383C299.4 540.714 297.758 539.845 296.924 540.44C296.09 541.035 296.379 542.871 297.569 544.539C298.76 546.208 300.402 547.078 301.236 546.483Z" fill="#2F2E41"/>
            <path id="Vector_106" d="M303.064 558.109C304.034 557.778 304.283 555.937 303.62 553.997C302.957 552.057 301.634 550.753 300.664 551.084C299.694 551.416 299.445 553.257 300.108 555.197C300.771 557.137 302.094 558.441 303.064 558.109Z" fill="#2F2E41"/>
            <path id="Vector_107" d="M306.776 569.245C307.746 568.914 307.995 567.072 307.332 565.132C306.669 563.193 305.346 561.889 304.376 562.22C303.406 562.552 303.157 564.393 303.82 566.333C304.483 568.273 305.806 569.576 306.776 569.245Z" fill="#2F2E41"/>
            <path id="Vector_108" d="M310.488 579.453C311.458 579.121 311.707 577.28 311.044 575.34C310.381 573.4 309.058 572.096 308.088 572.428C307.118 572.759 306.869 574.6 307.532 576.54C308.195 578.48 309.518 579.784 310.488 579.453Z" fill="#2F2E41"/>
            <path id="Vector_109" d="M312.344 590.588C313.314 590.257 313.563 588.416 312.9 586.476C312.237 584.536 310.913 583.232 309.944 583.563C308.974 583.895 308.725 585.736 309.388 587.676C310.051 589.616 311.374 590.92 312.344 590.588Z" fill="#2F2E41"/>
            <path id="Vector_110" d="M314.2 601.724C315.17 601.392 315.419 599.551 314.756 597.611C314.093 595.671 312.769 594.368 311.799 594.699C310.83 595.031 310.581 596.872 311.244 598.812C311.906 600.752 313.23 602.055 314.2 601.724Z" fill="#2F2E41"/>
            <path id="Vector_111" d="M316.056 613.788C317.026 613.456 317.275 611.615 316.612 609.675C315.949 607.735 314.625 606.431 313.655 606.763C312.685 607.094 312.437 608.935 313.099 610.875C313.762 612.815 315.086 614.119 316.056 613.788Z" fill="#2F2E41"/>
            <path id="Vector_112" d="M316.984 625.851C317.954 625.52 318.203 623.678 317.54 621.739C316.877 619.799 315.553 618.495 314.583 618.826C313.613 619.158 313.365 620.999 314.027 622.939C314.69 624.879 316.014 626.183 316.984 625.851Z" fill="#2F2E41"/>
            <path id="Vector_113" d="M235.332 506.232C235.332 506.232 262.804 474.206 260.191 467.994C257.578 461.782 236.073 448.894 211.225 459.345C211.225 459.345 200.31 450.776 196.513 462.608C192.716 474.44 206.511 475.949 206.511 475.949C206.511 475.949 202.25 504.061 227.877 509.367L235.332 506.232Z" fill="#575A89"/>
            <path id="Vector_114" d="M680.224 778.329C690.365 778.329 698.585 770.108 698.585 759.968C698.585 749.827 690.365 741.607 680.224 741.607C670.084 741.607 661.863 749.827 661.863 759.968C661.863 770.108 670.084 778.329 680.224 778.329Z" fill="#FF6584"/>
            <path id="Vector_115" d="M668.083 760.229L662.828 753.211L663.747 752.523L668.267 758.559L676.208 751.753L684.211 758.613L691.126 751.697L698.417 758.988L697.606 759.8L691.126 753.32L684.271 760.175L676.208 753.264L668.083 760.229Z" fill="#575A89"/>
            <path id="Vector_116" d="M666.947 769.302L661.74 762.347L662.541 761.747L667.107 767.847L675.06 761.031L683.067 767.894L689.979 760.982L697.217 768.221L696.51 768.928L689.979 762.397L683.12 769.255L675.06 762.348L666.947 769.302Z" fill="#575A89"/>
            <path id="Vector_117" d="M680.224 728.41H679.077V742.181H680.224V728.41Z" fill="#575A89"/>
            <path id="Vector_118" d="M618.808 777.683C628.949 777.683 637.169 769.462 637.169 759.322C637.169 749.181 628.949 740.961 618.808 740.961C608.668 740.961 600.447 749.181 600.447 759.322C600.447 769.462 608.668 777.683 618.808 777.683Z" fill="#FF6584"/>
            <path id="Vector_119" d="M607.968 764.796L600.199 760.733L600.731 759.716L607.413 763.211L611.64 753.645L621.82 756.38L625.074 747.157L634.798 750.588L634.416 751.67L625.774 748.621L622.548 757.763L612.292 755.007L607.968 764.796Z" fill="#575A89"/>
            <path id="Vector_120" d="M610.399 772.497L603.173 769.413L603.565 768.493L609.952 771.22L614.625 762.544L624.373 764.362L628.067 756.073L637.219 758.501L636.964 759.468L628.633 757.259L624.965 765.489L615.16 763.661L610.399 772.497Z" fill="#575A89"/>
            <path id="Vector_121" d="M605.191 730.853L604.156 731.348L610.098 743.771L611.133 743.276L605.191 730.853Z" fill="#575A89"/>
            <path id="Vector_122" d="M453.871 767.342C464.011 767.342 472.232 759.122 472.232 748.981C472.232 738.841 464.011 730.62 453.871 730.62C443.73 730.62 435.51 738.841 435.51 748.981C435.51 759.122 443.73 767.342 453.871 767.342Z" fill="#FF6584"/>
            <path id="Vector_123" d="M442.335 745.187L439.715 736.821L440.81 736.478L443.064 743.673L452.817 739.898L458.081 749.03L466.903 744.81L471.353 754.112L470.317 754.607L466.363 746.34L457.618 750.523L452.314 741.323L442.335 745.187Z" fill="#575A89"/>
            <path id="Vector_124" d="M466.247 762.851L462.261 754.518L453.51 758.702L448.209 749.507L438.244 753.364L435.649 745.073L436.603 744.774L438.879 752.046L448.648 748.265L453.914 757.401L462.732 753.184L467.149 762.419L466.247 762.851Z" fill="#575A89"/>
            <path id="Vector_125" d="M463.291 718.84L458.708 731.826L459.79 732.208L464.373 719.222L463.291 718.84Z" fill="#575A89"/>
            <path id="Vector_126" d="M842.334 713.907C843.265 713.759 843.618 711.103 843.122 707.973C842.626 704.843 841.469 702.425 840.538 702.573C839.607 702.72 839.254 705.377 839.75 708.507C840.246 711.637 841.403 714.055 842.334 713.907Z" fill="#575A89"/>
            <path id="Vector_127" d="M840.039 697.841C840.97 697.694 841.323 695.037 840.827 691.907C840.331 688.777 839.174 686.359 838.243 686.507C837.312 686.654 836.959 689.311 837.455 692.441C837.951 695.571 839.108 697.989 840.039 697.841Z" fill="#575A89"/>
            <path id="Vector_128" d="M844.629 728.825C845.56 728.678 845.913 726.021 845.417 722.891C844.921 719.761 843.764 717.344 842.833 717.491C841.902 717.639 841.549 720.295 842.045 723.425C842.541 726.555 843.698 728.973 844.629 728.825Z" fill="#575A89"/>
            <path id="Vector_129" d="M845.413 742.642C846.352 742.554 846.873 739.925 846.578 736.77C846.283 733.615 845.283 731.128 844.344 731.216C843.406 731.304 842.884 733.933 843.179 737.088C843.474 740.243 844.474 742.73 845.413 742.642Z" fill="#575A89"/>
            <path id="Vector_130" d="M871.332 647.479C873.573 645.238 874.849 642.881 874.182 642.214C873.516 641.548 871.159 642.824 868.918 645.064C866.677 647.305 865.401 649.662 866.068 650.329C866.734 650.996 869.091 649.719 871.332 647.479Z" fill="#575A89"/>
            <path id="Vector_131" d="M828.036 617.056C825.61 616.781 823.537 618.673 821.835 620.424C820.408 621.976 818.853 623.406 817.186 624.698C814.688 626.486 811.795 627.646 808.754 628.079C805.712 628.511 802.611 628.204 799.714 627.182C799.857 627.234 805.264 620.073 805.861 619.414C808.118 616.92 810.541 614.579 813.111 612.408C815.036 610.784 817.683 608 820.437 609.207C823.335 610.476 825.977 614.724 828.036 617.056Z" fill="#2F2E41"/>
            <path id="Vector_132" d="M794.407 632.015C794.407 632.015 826.539 615.949 826.539 610.211C826.539 604.473 813.915 587.26 790.964 587.26C790.964 587.26 785.226 576.932 778.341 584.965C771.456 592.997 781.784 598.735 781.784 598.735C781.784 598.735 769.161 619.391 787.522 632.015H794.407Z" fill="#575A89"/>
            <path id="Vector_133" d="M834.25 615.867C831.824 615.592 829.75 617.484 828.049 619.235C826.622 620.787 825.066 622.217 823.399 623.508C820.901 625.297 818.009 626.457 814.967 626.89C811.926 627.322 808.825 627.015 805.927 625.993C806.071 626.045 811.478 618.884 812.074 618.225C814.332 615.731 816.754 613.39 819.325 611.219C821.249 609.595 823.896 606.811 826.651 608.018C829.549 609.287 832.19 613.535 834.25 615.867Z" fill="#575A89"/>
            <path id="Vector_134" d="M904.573 611.358C900.919 605.268 894.356 608.874 889.001 613.6C888.74 610.659 887.848 608.49 886.786 608.49C885.518 608.49 884.491 611.572 884.491 615.375C884.49 616.216 884.543 617.056 884.651 617.89C882.144 620.608 880.474 622.834 880.474 622.834L873.589 627.424L886.212 641.195L891.95 634.31C891.95 634.31 911.458 622.834 904.573 611.358Z" fill="#FF6584"/>
            <path id="Vector_135" d="M776.62 586.686C779.155 586.686 781.21 584.631 781.21 582.096C781.21 579.561 779.155 577.505 776.62 577.505C774.085 577.505 772.029 579.561 772.029 582.096C772.029 584.631 774.085 586.686 776.62 586.686Z" fill="#575A89"/>
            <path id="Vector_136" d="M803.313 708.47V715.97C803.313 718.755 804.419 721.425 806.388 723.394C808.358 725.364 811.028 726.47 813.813 726.47C816.598 726.47 819.269 725.364 821.238 723.394C823.207 721.425 824.313 718.755 824.313 715.97V708.47H803.313Z" fill="#FF6584"/>
        </g>
    </g>
    <defs>
        <clipPath id="clip0">
            <rect width="1136.63" height="835.426" fill="white"/>
        </clipPath>
    </defs>
</svg>